<?xml version="1.0" standalone="no"?>
<!DOCTYPE svg PUBLIC "-//W3C//DTD SVG 20010904//EN"
 "http://www.w3.org/TR/2001/REC-SVG-20010904/DTD/svg10.dtd">
<svg version="1.0" xmlns="http://www.w3.org/2000/svg"
 width="260.000000pt" height="260.000000pt" viewBox="0 0 260.000000 260.000000"
 preserveAspectRatio="xMidYMid meet">
<metadata>
Created by potrace 1.14, written by Peter Selinger 2001-2017
</metadata>
<g transform="translate(0.000000,260.000000) scale(0.100000,-0.100000)"
fill="#000000" stroke="none">
<path d="M1150 2593 c-14 -2 -61 -11 -105 -20 -536 -105 -953 -545 -1032
-1088 -10 -66 -10 -284 -1 -360 4 -33 15 -87 23 -120 9 -33 17 -67 19 -75 1
-8 6 -24 10 -35 4 -11 22 -55 38 -98 33 -84 109 -217 163 -282 24 -30 33 -53
37 -93 8 -78 60 -122 147 -122 14 0 34 -8 45 -19 109 -97 320 -201 492 -242
131 -31 160 -34 324 -33 303 1 549 85 792 271 31 23 64 43 73 43 45 0 105 63
105 110 0 7 24 45 54 84 135 179 214 365 251 591 13 80 14 330 1 390 -4 17
-11 55 -17 85 -41 208 -166 442 -324 612 -195 207 -456 345 -748 395 -39 6
-313 11 -347 6z"/>
</g>
</svg>
